<svg width="203" height="64" viewBox="0 0 203 64" fill="none" xmlns="http://www.w3.org/2000/svg">
<path d="M194.062 21.3093L187.474 35.538H191.689L192.408 33.9078H197.342L198.065 35.538H202.281L195.698 21.3093H194.062ZM193.646 30.7921L194.785 27.7169H194.975L196.113 30.7921H193.646Z" fill="white"/>
<path d="M150.931 0H90.3817L100.472 21.3183H104.746L108.361 29.0761L111.976 21.3183H116.305L109.812 35.547H107.2L120.666 63.9955L134.366 35.0413C133.222 35.5817 131.971 35.8594 130.706 35.8541C126.68 35.8541 123.079 32.648 123.079 28.4214C123.079 24.1947 126.693 20.9841 130.706 20.9841C132.004 20.9545 133.289 21.2456 134.447 21.8317C135.605 22.4179 136.6 23.2808 137.344 24.3438L134.118 26.3171C133.666 25.6513 133.014 25.1478 132.255 24.8804C131.496 24.6131 130.671 24.596 129.902 24.8318C129.133 25.0676 128.46 25.5437 127.982 26.1903C127.503 26.8368 127.245 27.6196 127.245 28.4236C127.245 29.2277 127.503 30.0105 127.982 30.657C128.46 31.3036 129.133 31.7797 129.902 32.0155C130.671 32.2512 131.496 32.2342 132.255 31.9668C133.014 31.6995 133.666 31.1959 134.118 30.5302L135.966 31.6591L139.21 24.8043H141.989V35.5335H145.866V24.8043H149.757V21.3138H140.846L150.931 0ZM121.258 35.5335H117.399V21.3138H121.271L121.258 35.5335Z" fill="white"/>
<path d="M158.274 20.9886C154.045 20.9886 150.38 24.1947 150.38 28.4259C150.38 32.657 154.045 35.8586 158.274 35.8586C162.504 35.8586 166.168 32.6525 166.168 28.4259C166.168 24.1992 162.504 20.9886 158.274 20.9886ZM158.274 32.1784C157.53 32.1793 156.803 31.9596 156.184 31.5471C155.565 31.1346 155.082 30.5479 154.797 29.8612C154.512 29.1745 154.437 28.4187 154.582 27.6895C154.727 26.9603 155.085 26.2905 155.611 25.7648C156.137 25.2391 156.808 24.8812 157.537 24.7363C158.267 24.5915 159.023 24.6663 159.71 24.9512C160.398 25.2361 160.985 25.7184 161.397 26.3369C161.81 26.9554 162.03 27.6824 162.029 28.4259C162.027 29.4204 161.63 30.3734 160.927 31.0767C160.223 31.7799 159.269 32.176 158.274 32.1784Z" fill="white"/>
<path d="M179.81 26.4887C179.81 23.5129 177.438 21.3138 174.442 21.3138H167.971V35.5335H171.839V31.65H173.647L175.413 35.5154H179.756L177.361 30.7469C178.73 29.8077 179.81 28.4033 179.81 26.4887ZM174.306 28.1775H171.839V24.8043H174.306C175.178 24.8043 175.748 25.7888 175.748 26.4887C175.748 27.1886 175.178 28.1775 174.306 28.1775Z" fill="white"/>
<path d="M185.58 21.3138H181.708V35.5335H185.58V21.3138Z" fill="white"/>
<path d="M13.9716 24.425L10.8086 26.3577C10.4585 25.8456 9.98554 25.4294 9.433 25.147C8.88046 24.8646 8.26593 24.7251 7.64553 24.7411C7.01672 24.7617 6.40372 24.9432 5.86512 25.2681C5.32652 25.5931 4.88034 26.0507 4.56921 26.5971C4.25808 27.1436 4.09241 27.7607 4.08805 28.3894C4.08368 29.0181 4.24077 29.6374 4.54428 30.1881C4.84779 30.7388 5.28758 31.2026 5.82162 31.5349C6.35565 31.8673 6.96608 32.0573 7.59453 32.0866C8.22299 32.1159 8.84847 31.9837 9.41118 31.7025C9.97389 31.4213 10.455 31.0005 10.8086 30.4805L13.9716 32.4087C13.2443 33.4524 12.2701 34.3004 11.1357 34.8771C10.0012 35.4538 8.74177 35.7413 7.4693 35.7141C3.52905 35.7141 0 32.5532 0 28.4349C0 24.3167 3.52905 21.1557 7.4693 21.1557C8.73855 21.1245 9.99592 21.4065 11.1301 21.9768C12.2643 22.547 13.2402 23.3879 13.9716 24.425Z" fill="white"/>
<path d="M24.7124 30.7108L27.0711 35.389H22.8146L21.0885 31.6004H19.281V35.389H15.4899V21.4628H21.816C24.7531 21.4628 27.0756 23.6167 27.0756 26.5338C27.1073 28.4078 26.0499 29.7806 24.7124 30.7108ZM21.7211 24.8766H19.3036V28.182H21.7211C22.5751 28.182 23.1309 27.2157 23.1309 26.5293C23.1309 25.8429 22.5751 24.8766 21.7211 24.8766Z" fill="white"/>
<path d="M39.4477 31.9752V35.389H28.9825V21.4628H39.4477V24.8766H32.7736V26.7506H37.6086V30.0921H32.7736V31.9706L39.4477 31.9752Z" fill="white"/>
<path d="M55.0912 35.389H50.9747L50.2698 33.795H45.4303L44.7209 35.389H40.5818L47.0299 21.4628H48.6295L55.0912 35.389ZM49.0498 30.7469L47.9382 27.7395H47.7529L46.6368 30.7469H49.0498Z" fill="white"/>
<path d="M61.0558 24.8766V35.3845H57.2646V24.8766H53.4554V21.4583H64.865V24.8766H61.0558Z" fill="white"/>
<path d="M66.2206 21.4628H70.0117V35.389H66.2206V21.4628Z" fill="white"/>
<path d="M71.3086 21.4628H75.5425L79.0716 29.0581L82.6051 21.4628H86.8391L80.4859 35.389H77.6618L71.3086 21.4628Z" fill="white"/>
<path d="M98.4746 31.9752V35.389H88.0275V21.4628H98.4881V24.8766H91.8051V26.7506H96.6355V30.0921H91.8051V31.9706L98.4746 31.9752Z" fill="white"/>
</svg>
