<?xml version="1.0" encoding="UTF-8" standalone="no"?>
<svg
   width="275"
   height="87"
   viewBox="0 0 275 87"
   fill="none"
   version="1.1"
   id="svg28"
   sodipodi:docname="Creative Victoria.svg"
   inkscape:version="1.1 (c4e8f9e, 2021-05-24)"
   xmlns:inkscape="http://www.inkscape.org/namespaces/inkscape"
   xmlns:sodipodi="http://sodipodi.sourceforge.net/DTD/sodipodi-0.dtd"
   xmlns="http://www.w3.org/2000/svg"
   xmlns:svg="http://www.w3.org/2000/svg">
  <defs
     id="defs32" />
  <sodipodi:namedview
     id="namedview30"
     pagecolor="#ffffff"
     bordercolor="#666666"
     borderopacity="1.0"
     inkscape:pageshadow="2"
     inkscape:pageopacity="0.0"
     inkscape:pagecheckerboard="0"
     showgrid="false"
     inkscape:zoom="4.0981818"
     inkscape:cx="137.5"
     inkscape:cy="43.433895"
     inkscape:window-width="1296"
     inkscape:window-height="762"
     inkscape:window-x="0"
     inkscape:window-y="25"
     inkscape:window-maximized="0"
     inkscape:current-layer="svg28" />
  <path
     d="M263.82 28.9673L254.863 48.3094H260.595L261.571 46.0935H268.279L269.262 48.3094H274.994L266.043 28.9673H263.82ZM263.254 41.858L264.803 37.6777H265.061L266.609 41.858H263.254Z"
     fill="white"
     id="path2" />
  <path
     d="M205.186 0H122.871L136.588 28.9795H142.399L147.313 39.5254L152.228 28.9795H158.113L149.285 48.3218H145.735L164.04 86.9939L182.666 47.6343C181.11 48.3689 179.41 48.7464 177.69 48.7392C172.217 48.7392 167.321 44.3809 167.321 38.6353C167.321 32.8897 172.235 28.5253 177.69 28.5253C179.454 28.485 181.201 28.8808 182.775 29.6775C184.35 30.4743 185.703 31.6473 186.714 33.0923L182.328 35.7748C181.715 34.8698 180.827 34.1853 179.795 33.8218C178.764 33.4584 177.643 33.4352 176.597 33.7557C175.552 34.0762 174.636 34.7235 173.986 35.6024C173.336 36.4813 172.985 37.5454 172.985 38.6384C172.985 39.7313 173.336 40.7955 173.986 41.6744C174.636 42.5533 175.552 43.2005 176.597 43.521C177.643 43.8415 178.764 43.8184 179.795 43.4549C180.827 43.0915 181.715 42.4069 182.328 41.5019L184.84 43.0365L189.251 33.7184H193.029V48.3033H198.299V33.7184H203.589V28.9734H191.475L205.186 0ZM164.845 48.3033H159.599V28.9734H164.864L164.845 48.3033Z"
     fill="white"
     id="path4" />
  <path
     d="M215.168 28.5314C209.418 28.5314 204.437 32.8897 204.437 38.6414C204.437 44.3931 209.418 48.7453 215.168 48.7453C220.918 48.7453 225.9 44.387 225.9 38.6414C225.9 32.8959 220.918 28.5314 215.168 28.5314ZM215.168 43.7425C214.157 43.7437 213.168 43.445 212.326 42.8843C211.485 42.3236 210.829 41.526 210.441 40.5926C210.054 39.6591 209.952 38.6317 210.149 37.6404C210.346 36.6492 210.833 35.7386 211.548 35.024C212.263 34.3094 213.174 33.8228 214.166 33.626C215.158 33.4291 216.187 33.5308 217.121 33.9181C218.055 34.3054 218.853 34.9609 219.414 35.8017C219.975 36.6425 220.274 37.6308 220.273 38.6414C220.27 39.9933 219.731 41.2889 218.774 42.2448C217.818 43.2008 216.521 43.7392 215.168 43.7425Z"
     fill="white"
     id="path6" />
  <path
     d="M244.445 36.0081C244.445 31.9628 241.22 28.9734 237.147 28.9734H228.351V48.3033H233.609V43.0243H236.066L238.468 48.2788H244.371L241.116 41.7966C242.977 40.5198 244.445 38.6108 244.445 36.0081ZM236.963 38.3038H233.609V33.7184H236.963C238.149 33.7184 238.923 35.0566 238.923 36.0081C238.923 36.9595 238.149 38.3038 236.963 38.3038Z"
     fill="white"
     id="path8" />
  <path
     d="M252.29 28.9734H247.025V48.3033H252.29V28.9734Z"
     fill="white"
     id="path10" />
  <path
     d="M18.9939 33.2028L14.6939 35.83C14.2179 35.1339 13.575 34.5681 12.8238 34.1842C12.0727 33.8003 11.2372 33.6106 10.3938 33.6325C9.53898 33.6605 8.70563 33.9072 7.97342 34.3489C7.24122 34.7906 6.63464 35.4126 6.21167 36.1555C5.7887 36.8983 5.56349 37.7371 5.55755 38.5918C5.55162 39.4464 5.76517 40.2883 6.17778 41.037C6.59039 41.7856 7.18827 42.416 7.91427 42.8678C8.64028 43.3196 9.47013 43.5778 10.3245 43.6177C11.1789 43.6576 12.0292 43.4778 12.7942 43.0956C13.5591 42.7133 14.2132 42.1414 14.6939 41.4344L18.9939 44.0555C18.0051 45.4744 16.6807 46.6271 15.1385 47.411C13.5963 48.195 11.8841 48.5858 10.1542 48.5489C4.79762 48.5489 0 44.252 0 38.6537C0 33.0555 4.79762 28.7586 10.1542 28.7586C11.8797 28.7161 13.5891 29.0995 15.1309 29.8746C16.6728 30.6498 17.9996 31.7929 18.9939 33.2028Z"
     fill="white"
     id="path12" />
  <path
     d="M33.5958 41.7475L36.8024 48.1069H31.0158L28.6692 42.9568H26.212V48.1069H21.0581V29.176H29.6582C33.6511 29.176 36.8085 32.104 36.8085 36.0694C36.8515 38.6169 35.4141 40.483 33.5958 41.7475ZM29.5292 33.8166H26.2427V38.31H29.5292C30.6902 38.31 31.4458 36.9963 31.4458 36.0633C31.4458 35.1302 30.6902 33.8166 29.5292 33.8166Z"
     fill="white"
     id="path14" />
  <path
     d="M53.6279 43.4662V48.1069H39.4009V29.176H53.6279V33.8166H44.5548V36.3641H51.1277V40.9065H44.5548V43.4601L53.6279 43.4662Z"
     fill="white"
     id="path16" />
  <path
     d="M74.8943 48.1069H69.2981L68.3398 45.94H61.7608L60.7963 48.1069H55.1694L63.9354 29.176H66.11L74.8943 48.1069ZM66.6813 41.7966L65.1701 37.7084H64.9182L63.4009 41.7966H66.6813Z"
     fill="white"
     id="path18" />
  <path
     d="M83.0033 33.8166V48.1007H77.8494V33.8166H72.6709V29.1698H88.1818V33.8166H83.0033Z"
     fill="white"
     id="path20" />
  <path
     d="M90.0244 29.176H95.1783V48.1069H90.0244V29.176Z"
     fill="white"
     id="path22" />
  <path
     d="M96.9414 29.176H102.697L107.495 39.5008L112.299 29.176H118.055L109.418 48.1069H105.578L96.9414 29.176Z"
     fill="white"
     id="path24" />
  <path
     d="M133.872 43.4662V48.1069H119.67V29.176H133.891V33.8166H124.805V36.3641H131.372V40.9065H124.805V43.4601L133.872 43.4662Z"
     fill="white"
     id="path26" />
</svg>
